<svg width="78" height="18" viewBox="0 0 78 18" fill="none" xmlns="http://www.w3.org/2000/svg">
<path d="M11.792 15L11.776 7.576L8.096 13.72H7.168L3.488 7.672V15H1.504V3.8H3.216L7.664 11.224L12.032 3.8H13.744L13.76 15H11.792ZM24.9453 13.256V15H16.5453V3.8H24.7213V5.544H18.6253V8.456H24.0333V10.168H18.6253V13.256H24.9453ZM36.976 3.8V15H35.264L29.088 7.416V15H27.024V3.8H28.736L34.912 11.384V3.8H36.976ZM44.5531 15.16C43.0065 15.16 41.8011 14.728 40.9371 13.864C40.0731 12.9893 39.6411 11.7413 39.6411 10.12V3.8H41.7211V10.04C41.7211 12.2373 42.6705 13.336 44.5691 13.336C46.4571 13.336 47.4011 12.2373 47.4011 10.04V3.8H49.4491V10.12C49.4491 11.7413 49.0171 12.9893 48.1531 13.864C47.2998 14.728 46.0998 15.16 44.5531 15.16ZM45.3851 0.695999H47.7371L44.9531 2.888H43.2251L45.3851 0.695999Z" fill="white"/>
<path d="M59 9H77" stroke="white" stroke-width="2" stroke-linecap="round" stroke-linejoin="round"/>
<path d="M59 3H77" stroke="white" stroke-width="2" stroke-linecap="round" stroke-linejoin="round"/>
<path d="M59 15H77" stroke="white" stroke-width="2" stroke-linecap="round" stroke-linejoin="round"/>
</svg>
