<svg width="22" height="22" viewBox="0 0 22 22" fill="none" xmlns="http://www.w3.org/2000/svg">
<path d="M11 0C4.93534 0 0 4.93533 0 11C0 17.0647 4.93534 22 11 22C17.0647 22 22 17.0647 22 11C22 4.93533 17.0647 0 11 0ZM11 1.83333C16.0738 1.83333 20.1667 5.92625 20.1667 11C20.1689 13.1945 19.382 15.3166 17.9496 16.979C16.5172 18.6415 14.5347 19.7335 12.364 20.0557V13.673H14.9747L15.3844 11.0211H12.364V9.57275C12.364 8.47275 12.7261 7.49467 13.7555 7.49467H15.4101V5.181C15.1195 5.14158 14.5044 5.05633 13.3421 5.05633C10.9148 5.05633 9.4921 6.33783 9.4921 9.25833V11.0211H6.99693V13.673H9.4921V20.0328C7.35145 19.6805 5.40581 18.5785 4.00281 16.9238C2.5998 15.2691 1.83085 13.1694 1.83334 11C1.83334 5.92625 5.92626 1.83333 11 1.83333Z" fill="white"/>
</svg>
