<svg width="23" height="22" viewBox="0 0 23 22" fill="none" xmlns="http://www.w3.org/2000/svg">
<path d="M11.1364 0C5.05547 0 0.106934 4.93533 0.106934 11C0.106934 17.0647 5.05547 22 11.1364 22C17.2173 22 22.1658 17.0647 22.1658 11C22.1658 4.93533 17.2173 0 11.1364 0ZM11.1364 1.83333C16.2237 1.83333 20.3276 5.92625 20.3276 11C20.3298 13.1945 19.5408 15.3166 18.1045 16.979C16.6683 18.6415 14.6805 19.7335 12.504 20.0557V13.673H15.1217L15.5325 11.0211H12.504V9.57275C12.504 8.47275 12.8671 7.49467 13.8992 7.49467H15.5582V5.181C15.2669 5.14158 14.6502 5.05633 13.4847 5.05633C11.0509 5.05633 9.62441 6.33783 9.62441 9.25833V11.0211H7.12257V13.673H9.62441V20.0328C7.47804 19.6805 5.5272 18.5785 4.12044 16.9238C2.71369 15.2691 1.94268 13.1694 1.94517 11C1.94517 5.92625 6.04904 1.83333 11.1364 1.83333Z" fill="black"/>
</svg>
