<svg width="23" height="22" viewBox="0 0 23 22" fill="none" xmlns="http://www.w3.org/2000/svg">
<path d="M14.7518 11C14.7518 8.9375 13.0974 7.2875 11.0294 7.2875C8.9614 7.2875 7.30699 8.9375 7.30699 11C7.30699 13.0625 8.9614 14.7125 11.0294 14.7125C13.0974 14.7125 14.7518 13.0625 14.7518 11ZM16.682 11C16.682 14.1625 14.2004 16.6375 11.0294 16.6375C7.85846 16.6375 5.37684 14.1625 5.37684 11C5.37684 7.8375 7.85846 5.3625 11.0294 5.3625C14.2004 5.3625 16.682 7.8375 16.682 11ZM18.1985 5.0875C18.1985 5.9125 17.6471 6.4625 16.8199 6.4625C15.9926 6.4625 15.4412 5.9125 15.4412 5.0875C15.4412 4.2625 15.9926 3.7125 16.8199 3.7125C17.6471 3.7125 18.1985 4.4 18.1985 5.0875ZM11.0294 1.925C9.375 1.925 5.92831 1.7875 4.54963 2.3375C3.58456 2.75 2.75735 3.575 2.48162 4.5375C1.93015 5.9125 2.06801 9.35 2.06801 11C2.06801 12.65 1.93015 16.0875 2.48162 17.4625C2.75735 18.425 3.58456 19.25 4.54963 19.525C5.92831 20.075 9.51287 19.9375 11.0294 19.9375C12.546 19.9375 16.1305 20.075 17.5092 19.525C18.4743 19.1125 19.1636 18.425 19.5772 17.4625C20.1287 15.95 19.9908 12.5125 19.9908 11C19.9908 9.4875 20.1287 5.9125 19.5772 4.5375C19.3015 3.575 18.4743 2.75 17.5092 2.475C16.1305 1.7875 12.6838 1.925 11.0294 1.925ZM22.0588 11V15.5375C22.0588 17.1875 21.5074 18.8375 20.2665 20.2125C19.0257 21.45 17.3713 22 15.579 22H6.47978C4.82537 22 3.17096 21.45 1.79228 20.2125C0.689338 18.975 0 17.325 0 15.5375V11V6.4625C0 4.675 0.689338 3.025 1.79228 1.7875C3.17096 0.6875 4.82537 0 6.47978 0H15.579C17.2335 0 18.8879 0.55 20.2665 1.7875C21.3695 3.025 22.0588 4.675 22.0588 6.4625V11Z" fill="black"/>
</svg>
