<svg width="22" height="22" viewBox="0 0 22 22" fill="none" xmlns="http://www.w3.org/2000/svg">
<path d="M14.7125 11C14.7125 8.9375 13.0625 7.2875 11 7.2875C8.9375 7.2875 7.2875 8.9375 7.2875 11C7.2875 13.0625 8.9375 14.7125 11 14.7125C13.0625 14.7125 14.7125 13.0625 14.7125 11ZM16.6375 11C16.6375 14.1625 14.1625 16.6375 11 16.6375C7.8375 16.6375 5.3625 14.1625 5.3625 11C5.3625 7.8375 7.8375 5.3625 11 5.3625C14.1625 5.3625 16.6375 7.8375 16.6375 11ZM18.15 5.0875C18.15 5.9125 17.6 6.4625 16.775 6.4625C15.95 6.4625 15.4 5.9125 15.4 5.0875C15.4 4.2625 15.95 3.7125 16.775 3.7125C17.6 3.7125 18.15 4.4 18.15 5.0875ZM11 1.925C9.35 1.925 5.9125 1.7875 4.5375 2.3375C3.575 2.75 2.75 3.575 2.475 4.5375C1.925 5.9125 2.0625 9.35 2.0625 11C2.0625 12.65 1.925 16.0875 2.475 17.4625C2.75 18.425 3.575 19.25 4.5375 19.525C5.9125 20.075 9.4875 19.9375 11 19.9375C12.5125 19.9375 16.0875 20.075 17.4625 19.525C18.425 19.1125 19.1125 18.425 19.525 17.4625C20.075 15.95 19.9375 12.5125 19.9375 11C19.9375 9.4875 20.075 5.9125 19.525 4.5375C19.25 3.575 18.425 2.75 17.4625 2.475C16.0875 1.7875 12.65 1.925 11 1.925ZM22 11V15.5375C22 17.1875 21.45 18.8375 20.2125 20.2125C18.975 21.45 17.325 22 15.5375 22H6.4625C4.8125 22 3.1625 21.45 1.7875 20.2125C0.6875 18.975 0 17.325 0 15.5375V11V6.4625C0 4.675 0.6875 3.025 1.7875 1.7875C3.1625 0.6875 4.8125 0 6.4625 0H15.5375C17.1875 0 18.8375 0.55 20.2125 1.7875C21.3125 3.025 22 4.675 22 6.4625V11Z" fill="white"/>
</svg>
