<svg width="381" height="199" viewBox="0 0 381 199" fill="none" xmlns="http://www.w3.org/2000/svg">
<path d="M139.971 145.277C138.893 137.239 138.56 129.318 138.952 121.515C139.363 113.712 140.206 106.26 141.479 99.1806C142.753 92.1009 144.301 85.5102 146.084 79.4475C147.867 73.3848 149.63 68.0653 151.354 63.4889C153.078 58.9321 154.587 55.2554 155.919 52.4978C157.232 49.7403 158.035 48.117 158.29 47.6477C158.623 46.9632 158.643 46.0049 158.349 44.7337C158.055 43.482 157.487 42.2303 156.683 40.9982C155.88 39.7661 154.842 38.6905 153.588 37.7713C152.334 36.8521 151.001 36.3828 149.591 36.3828C149.042 36.3828 148.454 36.461 147.827 36.637C147.181 36.813 146.593 37.1064 146.064 37.4975C142.224 39.9422 138.462 42.8171 134.779 46.0831C131.095 49.3491 127.549 52.9085 124.101 56.7221C120.652 60.5358 117.361 64.5645 114.226 68.7889C111.091 73.0132 108.172 77.3353 105.468 81.7748C107.564 75.5752 109.739 69.6298 111.992 63.9387C114.245 58.2476 116.361 53.1236 118.321 48.5473C120.28 43.9905 121.985 40.1573 123.434 37.1064C124.884 34.0359 125.883 32.0606 126.412 31.1806C126.746 30.4374 126.765 29.4204 126.471 28.1688C126.177 26.9171 125.629 25.6655 124.845 24.4334C124.061 23.2013 123.082 22.1452 121.867 21.2651C120.652 20.3851 119.339 19.9353 117.929 19.9353C117.38 19.9353 116.792 19.9939 116.165 20.0917C115.519 20.1895 114.892 20.4437 114.285 20.8544C105.781 26.3109 98.2381 32.6082 91.6745 39.7661C85.0914 46.924 79.3311 54.3753 74.3741 62.1003C69.4171 69.845 65.2047 77.5113 61.7172 85.1582C58.2493 92.7854 55.3887 99.8064 53.1552 106.221C54.6442 97.2249 56.5055 88.6393 58.7195 80.4645C60.9335 72.2896 63.2846 64.6819 65.7533 57.6609C68.222 50.6399 70.6515 44.2643 73.0418 38.5536C75.4321 32.8234 77.5481 27.9537 79.3703 23.9445C80.7222 20.874 81.839 18.2925 82.7206 16.1803C83.6023 14.0681 84.2097 12.3667 84.5428 11.0759C84.7387 10.1176 84.484 8.98328 83.7786 7.6534C83.0733 6.32352 82.0545 5.09142 80.7418 3.91799C79.429 2.74457 77.8812 1.80583 76.0787 1.06266C74.2762 0.280375 72.3561 -0.0520953 70.338 0.00657597C69.3976 0.0848043 67.7518 0.495503 65.4398 1.27779C63.1083 2.06007 60.3261 3.21394 57.0933 4.75895C53.8605 6.2844 50.3142 8.22056 46.474 10.5283C42.6338 12.836 38.7349 15.5545 34.7771 18.664C30.839 21.7736 26.94 25.2939 23.139 29.2444C19.3185 33.195 15.8309 37.5562 12.6569 42.3281C9.4829 47.1001 6.77909 52.3218 4.56511 58.0129C2.33154 63.7236 0.803303 69.845 0 76.377C0.195928 80.6014 0.999231 84.1412 2.37072 87.0161C3.76181 89.8714 5.27045 91.964 6.91624 93.2548C8.56204 94.5456 10.0903 95.054 11.4618 94.7802C12.8528 94.5064 13.5974 93.3526 13.7345 91.2991C14.2048 83.1242 15.6938 75.5947 18.1821 68.7106C20.6704 61.8265 23.7072 55.5878 27.2927 49.9945C30.8782 44.4012 34.738 39.4532 38.9308 35.1116C43.1041 30.7894 47.1402 27.0736 51.0195 23.964C54.8989 20.8544 58.3864 18.3316 61.5017 16.3954C64.5973 14.4593 66.8897 13.0707 68.3787 12.2493C68.5747 12.1124 68.7902 12.0537 69.0449 12.0537C69.28 12.0537 69.4367 12.0146 69.4955 11.956V12.3667C69.2212 12.836 68.4179 14.1659 67.066 16.2976C65.7141 18.4489 64.0879 21.3434 62.1482 24.981C60.2281 28.6186 58.0925 32.9212 55.7806 37.8691C53.449 42.8171 51.1763 48.3322 48.9427 54.434C46.7091 60.5358 44.6323 67.0874 42.673 74.1084C40.7138 81.1294 39.1463 88.522 37.9708 96.2861C36.7952 104.05 36.0899 112.127 35.8939 120.517C35.698 128.907 36.2074 137.454 37.4222 146.176L37.8336 149.755C38.1667 151.946 39.0288 153.784 40.4199 155.27C41.8109 156.776 43.2608 157.911 44.7695 158.693C46.2781 159.475 47.63 159.905 48.8252 159.964C50.0007 160.023 50.5885 159.69 50.5885 158.947C50.4514 158.126 50.373 157.285 50.3338 156.444C50.2946 155.603 50.2554 154.762 50.1771 153.94C51.6661 143.653 53.8605 133.797 56.7602 124.39C59.66 114.983 62.9711 106.143 66.6742 97.8703C70.3772 89.5976 74.3153 81.9312 78.469 74.9102C82.6227 67.8892 86.6588 61.6505 90.6165 56.1941C94.5547 50.7377 98.2381 46.1222 101.647 42.3477C105.056 38.5732 107.878 35.7569 110.092 33.9186C106.859 39.1012 103.802 44.9488 100.942 51.4417C98.0814 57.9542 95.4951 64.6819 93.2028 71.6246C90.9104 78.5674 88.9119 85.4711 87.227 92.3161C85.542 99.161 84.2097 105.517 83.23 111.384C82.2504 117.251 81.6822 122.375 81.5059 126.776C81.3295 131.176 81.6234 134.325 82.368 136.222C83.1125 138.06 84.0137 139.39 85.1109 140.211C86.1885 141.033 87.2662 141.443 88.3438 141.443C89.2254 141.443 90.0483 141.248 90.832 140.837C91.6157 140.427 92.3015 139.898 92.9089 139.253C93.5162 138.608 94.0061 137.904 94.3783 137.16C94.7506 136.417 94.9269 135.733 94.9269 135.107C94.8485 134.286 94.8094 133.464 94.7702 132.604C94.731 131.743 94.7506 130.844 94.829 129.885C95.7106 124.781 97.2585 119.403 99.492 113.79C101.726 108.177 104.292 102.603 107.231 97.0684C110.17 91.5533 113.325 86.2338 116.694 81.1098C120.064 76.0054 123.356 71.3509 126.569 67.1656C129.763 62.9804 132.741 59.4015 135.464 56.4288C138.188 53.4561 140.441 51.4026 142.204 50.2487C138.149 56.9959 134.798 64.1538 132.134 71.7224C129.469 79.291 127.47 86.9574 126.119 94.7216C124.767 102.486 123.983 110.152 123.787 117.721C123.591 125.289 123.944 132.369 124.904 138.979C125.511 143.947 126.452 148.152 127.745 151.554C128.548 153.588 129.861 155.407 131.644 156.972C133.427 158.536 135.229 159.788 137.012 160.707C138.795 161.626 140.343 162.174 141.675 162.35C142.988 162.526 143.615 162.233 143.556 161.49C142.753 158.888 142.028 156.209 141.421 153.412C140.774 150.655 140.304 147.936 139.971 145.277Z" fill="#FC4845"/>
<path d="M376.161 66.5208C379.178 55.6275 373.555 43.9519 362.798 39.6493C352.042 35.3663 339.894 39.9427 334.565 49.9168L329.785 48.0002L327.923 52.6353L332.704 54.5518C331.568 58.698 331.626 63.0787 332.9 67.1662L327.923 79.5654L333.37 81.7362L321.497 118.816C319.616 122.532 317.206 126.6 315.795 129.162C313.797 132.8 311.602 135.616 309.173 137.591C307.899 138.55 307.018 139.019 306.548 139.019C305.803 139.019 305 137.552 304.118 134.619C303.236 132.096 302.609 129.24 302.198 126.033C301.591 121.672 301.297 116.802 301.297 111.424C303.393 107.121 305.509 102.349 307.664 97.069C309.82 91.7886 311.877 86.3517 313.836 80.7584C315.795 75.165 317.598 69.6108 319.244 64.0957C320.889 58.5806 322.261 53.4175 323.339 48.6065C324.416 43.7954 325.18 39.5516 325.611 35.8357C326.042 32.1199 326.023 29.3036 325.553 27.4066C324.886 24.8837 323.887 22.928 322.574 21.5199C321.262 20.1314 319.851 19.6033 318.382 19.9358C315.541 20.2683 312.935 21.5786 310.544 23.8277C308.154 26.0767 305.999 29.0103 304.059 32.6283C302.139 36.2464 300.435 40.3925 298.946 45.1058C297.457 49.7995 296.203 54.8256 295.145 60.1256C294.106 65.4452 293.264 70.9407 292.617 76.6318C291.971 82.3229 291.559 87.9162 291.344 93.3922C291.344 93.4313 291.344 93.4705 291.344 93.5096C291.128 94.0572 290.893 94.6439 290.638 95.2697C289.835 97.245 288.875 99.5527 287.797 102.173C286.72 104.794 285.564 107.512 284.349 110.309C283.134 113.106 281.9 115.883 280.646 118.64C279.392 121.398 278.177 123.921 277.002 126.209C275.826 128.497 274.729 130.453 273.71 132.076C272.691 133.719 271.849 134.795 271.183 135.342C271.124 135.205 271.143 134.931 271.281 134.521C271.555 132.741 272.123 128.986 273.005 123.217C273.886 117.467 275.258 109.703 277.158 99.9634C277.296 98.8682 277.08 97.9295 276.551 97.1081C276.002 96.2867 275.101 96.052 273.828 96.3845C272.672 96.7169 271.379 97.245 269.929 97.9099C268.479 98.5944 267.284 99.2789 266.343 99.9439C266.108 100.12 265.932 100.276 265.775 100.413C266.03 100.159 266.206 100.003 266.343 99.9439C266.069 100.003 265.873 100.179 265.736 100.452C265.481 100.667 265.305 100.843 265.226 100.98C265.148 101.059 265.128 101.196 265.128 101.391C264.247 102.76 263.012 104.755 261.425 107.415C259.838 110.074 258.193 112.969 256.468 116.098C254.744 119.227 253.138 122.376 251.609 125.564C250.081 128.732 248.964 131.47 248.22 133.797C248.024 130.864 248.102 127.656 248.475 124.195C248.847 120.713 249.415 117.252 250.199 113.771C250.982 110.29 251.962 106.926 253.138 103.66C254.313 100.394 255.626 97.4797 257.037 94.9177C258.447 92.3557 259.976 90.2435 261.582 88.5812C263.208 86.9188 264.893 85.941 266.637 85.6672C267.107 85.8041 267.46 86.0779 267.695 86.4886C267.93 86.8993 268.126 87.3491 268.302 87.8771C268.459 88.3856 268.636 88.8745 268.812 89.3635C268.969 89.8328 269.223 90.1849 269.576 90.3804C271.065 91.3974 272.241 91.7886 273.122 91.5539C274.004 91.3192 274.592 90.7325 274.886 89.8133C275.199 88.8941 275.199 87.7598 274.944 86.3908C274.67 85.0218 274.141 83.731 273.377 82.4989C272.593 81.2668 271.535 80.2303 270.183 79.3894C268.831 78.5288 267.244 78.1377 265.422 78.2159C261.034 78.4897 257.272 79.6436 254.137 81.6971C251.002 83.7506 248.377 86.3321 246.241 89.4613C245.046 91.2214 244.007 93.0989 243.087 95.0937C241.911 96.7365 240.579 98.5749 239.09 100.667C236.386 104.442 233.427 108.725 230.175 113.497C230.508 110.915 230.841 108.412 231.194 106.026C231.527 103.64 231.86 101.293 232.213 98.966C232.271 98.6922 231.821 98.5162 230.841 98.4575C229.861 98.3988 228.745 98.4184 227.491 98.5553C226.237 98.6922 225.002 98.8878 223.749 99.1225C222.495 99.3571 221.633 99.5918 221.162 99.7874L220.966 99.983H220.868C220.594 100.12 220.065 100.824 219.242 102.076C218.439 103.327 217.44 104.931 216.264 106.828C215.089 108.745 213.835 110.876 212.522 113.262C211.209 115.648 209.916 118.073 208.623 120.518C207.349 122.963 206.174 125.349 205.135 127.676C204.097 129.984 203.255 132.037 202.647 133.817C202.451 130.883 202.53 127.676 202.902 124.214C203.274 120.733 203.842 117.271 204.626 113.79C205.41 110.309 206.389 106.945 207.565 103.679C208.74 100.413 210.053 97.4992 211.464 94.9372C212.875 92.3753 214.403 90.2631 216.009 88.6007C217.636 86.9384 219.321 85.9605 221.064 85.6867C222.005 85.8823 222.632 86.4886 222.945 87.4664C223.259 88.4638 223.611 89.4221 224.003 90.3804C224.003 90.5173 224.356 90.7716 225.061 91.1432C225.767 91.5147 226.511 91.7103 227.295 91.7103C228.079 91.7103 228.706 91.3583 229.215 90.6347C229.724 89.9111 229.842 88.503 229.568 86.3908C229.019 84.2786 227.961 82.362 226.374 80.6215C224.787 78.8809 222.612 78.079 219.85 78.2159C215.461 78.4897 211.699 79.6436 208.564 81.6971C205.429 83.7506 202.784 86.3321 200.668 89.4613C198.552 92.5904 196.848 96.0911 195.613 99.9439C194.79 102.486 194.124 105.048 193.595 107.591C193.203 108.49 192.831 109.39 192.42 110.309C191.205 113.106 189.971 115.883 188.717 118.64C187.463 121.398 186.248 123.921 185.072 126.209C183.897 128.497 182.8 130.453 181.781 132.076C180.762 133.719 179.92 134.795 179.253 135.342C179.195 135.205 179.214 134.931 179.351 134.521C179.626 132.741 180.194 128.986 181.076 123.217C181.957 117.467 183.329 109.703 185.229 99.9634C185.366 98.8682 185.151 97.9295 184.622 97.1081C184.073 96.2867 183.172 96.052 181.898 96.3845C180.742 96.7169 179.449 97.245 177.999 97.9099C176.55 98.5944 175.354 99.2789 174.414 99.9439C174.179 100.12 174.003 100.276 173.846 100.413C174.1 100.159 174.296 100.003 174.414 99.9439C174.14 100.003 173.944 100.179 173.807 100.452C173.552 100.667 173.376 100.843 173.297 100.98C173.219 101.059 173.199 101.196 173.199 101.391C172.318 102.76 171.083 104.755 169.496 107.415C167.909 110.074 166.263 112.969 164.539 116.098C162.815 119.227 161.208 122.376 159.68 125.564C158.152 128.732 157.035 131.47 156.291 133.797C156.095 130.864 156.173 127.656 156.545 124.195C156.918 120.733 157.486 117.252 158.27 113.771C159.034 110.29 160.013 106.926 161.208 103.66C162.384 100.394 163.697 97.4797 165.107 94.9177C166.518 92.3557 168.046 90.2435 169.653 88.5812C171.279 86.9188 172.964 85.941 174.708 85.6672C175.178 85.8041 175.531 86.0779 175.766 86.4886C176.001 86.8993 176.197 87.3491 176.373 87.8771C176.53 88.3856 176.706 88.8745 176.883 89.3635C177.059 89.8524 177.294 90.1849 177.647 90.3804C179.136 91.3974 180.311 91.7886 181.193 91.5539C182.075 91.3192 182.663 90.7325 182.956 89.8133C183.25 88.8941 183.27 87.7598 183.015 86.3908C182.741 85.0218 182.212 83.731 181.448 82.4989C180.664 81.2668 179.606 80.2303 178.254 79.3894C176.902 78.5288 175.315 78.1377 173.493 78.2159C169.104 78.4897 165.343 79.6436 162.208 81.6971C159.073 83.7506 156.447 86.3321 154.312 89.4613C152.196 92.5904 150.511 96.0911 149.257 99.9439C148.003 103.797 147.102 107.669 146.533 111.541C145.965 115.414 145.671 119.149 145.671 122.689C145.671 126.229 145.848 129.26 146.181 131.783C146.318 132.937 146.475 133.954 146.631 134.795C146.808 135.655 147.023 136.34 147.298 136.887V136.574C147.709 137.806 148.238 139.156 148.924 140.603C149.61 142.07 150.334 143.38 151.099 144.534C151.863 145.688 152.705 146.548 153.587 147.096C154.469 147.644 155.331 147.604 156.212 146.998C156.624 146.724 157.114 146.099 157.682 145.101C158.25 144.123 158.877 142.911 159.563 141.522C160.248 140.134 160.954 138.55 161.698 136.809C162.443 135.068 163.187 133.25 163.932 131.333C164.872 128.947 165.891 126.522 166.969 124.019C168.046 121.515 169.085 119.208 170.104 117.017C169.555 121.515 169.3 125.798 169.3 129.847C169.3 133.895 169.477 137.161 169.81 139.606C169.947 140.623 170.084 141.522 170.221 142.265C170.358 143.009 170.593 143.595 170.926 144.006C171.867 145.649 172.866 146.607 173.905 146.92C174.943 147.233 175.883 147.389 176.687 147.389C177.96 147.389 179.371 146.607 180.88 145.043C182.388 143.478 183.975 141.405 185.641 138.862C187.286 136.3 188.952 133.386 190.598 130.12C191.127 129.064 191.636 127.989 192.165 126.933C192.243 128.693 192.381 130.316 192.576 131.763C192.714 132.917 192.87 133.934 193.027 134.775C193.184 135.616 193.419 136.32 193.693 136.868V136.555C194.105 137.787 194.634 139.136 195.319 140.583C195.986 142.05 196.711 143.361 197.494 144.514C198.278 145.668 199.101 146.529 199.983 147.076C200.864 147.624 201.746 147.585 202.608 146.979C203.078 146.568 203.646 145.825 204.332 144.73C204.998 143.634 205.743 142.305 206.566 140.74C207.369 139.175 208.251 137.396 209.191 135.42C210.132 133.445 211.072 131.392 212.032 129.279C213.051 126.972 214.089 124.625 215.167 122.278C216.245 119.931 217.283 117.76 218.302 115.785C218.302 116.059 218.282 116.294 218.243 116.509C218.204 116.724 218.165 116.959 218.086 117.232C217.753 120.088 217.361 123.178 216.93 126.483C216.499 129.788 216.009 133.25 215.461 136.868C212.424 141.972 209.544 147.116 206.801 152.298C204.077 157.481 201.746 162.429 199.826 167.181C197.906 171.914 196.475 176.353 195.574 180.46C194.673 184.567 194.477 188.146 195.026 191.139C195.633 193.935 196.652 195.95 198.121 197.162C199.571 198.394 201.472 198.942 203.842 198.805C206.331 198.727 208.603 197.71 210.621 195.735C212.639 193.759 214.442 191.119 216.029 187.814C217.616 184.509 219.007 180.636 220.222 176.217C221.437 171.777 222.534 167.025 223.513 161.959C224.493 156.875 225.355 151.614 226.1 146.157C226.844 140.701 227.55 135.284 228.216 129.905C231.253 125.212 234.231 120.733 237.17 116.509C237.483 116.078 237.757 115.648 238.071 115.218C237.816 117.76 237.64 120.244 237.64 122.63C237.64 126.17 237.816 129.201 238.149 131.724C238.286 132.878 238.443 133.895 238.6 134.736C238.757 135.577 238.992 136.281 239.266 136.829V136.516C239.677 137.748 240.206 139.097 240.892 140.544C241.558 142.011 242.283 143.321 243.067 144.475C243.831 145.629 244.674 146.49 245.555 147.037C246.437 147.585 247.299 147.546 248.181 146.94C248.592 146.666 249.082 146.04 249.65 145.043C250.218 144.065 250.845 142.852 251.531 141.464C252.197 140.075 252.922 138.491 253.647 136.75C254.392 135.01 255.136 133.191 255.881 131.274C256.821 128.888 257.84 126.463 258.918 123.96C259.995 121.476 261.034 119.149 262.052 116.959C261.504 121.457 261.249 125.74 261.249 129.788C261.249 133.836 261.425 137.102 261.759 139.547C261.896 140.564 262.033 141.464 262.17 142.207C262.307 142.95 262.542 143.537 262.875 143.947C263.816 145.59 264.815 146.548 265.853 146.861C266.892 147.174 267.832 147.331 268.636 147.331C269.909 147.331 271.32 146.548 272.828 144.984C274.357 143.419 275.924 141.346 277.589 138.804C279.255 136.261 280.901 133.328 282.546 130.062C284.192 126.796 285.799 123.432 287.347 119.99C288.797 116.783 290.129 113.653 291.402 110.563C291.579 115.022 291.912 119.11 292.402 122.806C292.735 125.603 293.166 128.106 293.656 130.316C294.165 132.526 294.792 134.423 295.536 135.988C296.888 139.254 298.632 141.952 300.748 144.065C302.864 146.177 305.352 147.233 308.193 147.233C310.349 146.9 312.504 145.473 314.62 142.989C316.128 141.229 317.578 139.156 318.969 136.829C319.851 138.139 321.105 139.215 322.672 139.84C326.513 141.366 330.862 139.782 332.821 136.144L355.177 90.3218L360.526 92.4535L365.502 80.0543C369.244 77.9617 372.32 74.8326 374.358 71.058L379.139 72.9746L381 68.3396L376.161 66.5208ZM304.98 73.0137C306.156 66.3448 307.527 60.0865 309.075 54.2585C310.623 48.4305 312.308 43.2479 314.13 38.7106C315.952 34.1734 317.813 30.6922 319.694 28.228C319.753 28.0911 319.812 28.1693 319.851 28.4822C319.89 28.7952 319.929 29.0494 320.008 29.245C320.067 31.8461 319.675 35.4446 318.793 40.0796C317.911 44.7146 316.677 49.9364 315.051 55.7253C313.425 61.5142 311.505 67.6355 309.271 74.0698C307.037 80.5041 304.686 86.8015 302.178 92.9229C302.864 86.3321 303.805 79.6827 304.98 73.0137ZM209.603 169.763C208.721 173.811 207.82 177.429 206.879 180.597C205.939 183.766 204.959 186.367 203.94 188.42C202.921 190.474 201.922 191.725 200.903 192.195C200.629 192.195 200.453 191.901 200.355 191.334C200.257 190.747 200.198 190.2 200.198 189.652C200.394 185.487 201.589 180.578 203.784 174.926C205.978 169.274 208.76 163.309 212.13 157.031C211.307 161.47 210.465 165.714 209.603 169.763ZM328.354 133.934C327.61 135.303 325.944 135.89 324.495 135.303C323.045 134.716 322.261 133.152 322.653 131.665L325.024 124.273C325.317 123.549 325.592 122.826 325.886 122.102C327.512 117.799 328.942 113.634 330.196 109.586C331.372 105.752 332.332 102.271 333.096 99.1225L338.053 83.6332L350.475 88.6007L328.354 133.934ZM357.704 86.0779L334.448 76.7883L336.133 72.5639L336.681 72.2901L359.193 81.2668L359.389 81.834L357.704 86.0779ZM361.192 76.6905L338.405 67.5964C336.858 64.0762 336.505 60.1452 337.406 56.4293L369.617 69.2783C367.697 72.603 364.738 75.2041 361.192 76.6905ZM371.478 64.6433L339.248 51.7747C343.539 44.3626 352.747 41.0183 360.937 44.2844C369.127 47.5504 373.496 56.3315 371.478 64.6433Z" fill="#FC4845"/>
</svg>
