<svg width="40" height="41" viewBox="0 0 40 41" fill="none" xmlns="http://www.w3.org/2000/svg">
<path d="M35.2682 36.6051C34.9967 34.5798 34.9128 32.5841 35.0115 30.6179C35.1152 28.6517 35.3274 26.7742 35.6483 24.9904C35.9692 23.2065 36.3592 21.5459 36.8085 20.0183C37.2577 18.4907 37.702 17.1503 38.1365 15.9972C38.5709 14.849 38.951 13.9226 39.2867 13.2278C39.6175 12.533 39.8199 12.124 39.8841 12.0057C39.968 11.8332 39.9729 11.5918 39.8989 11.2715C39.8248 10.9561 39.6817 10.6407 39.4793 10.3303C39.2769 10.0198 39.0152 9.74879 38.6993 9.51719C38.3833 9.28558 38.0476 9.16731 37.6922 9.16731C37.5539 9.16731 37.4058 9.18702 37.2478 9.23137C37.0849 9.27572 36.9368 9.34964 36.8035 9.4482C35.8359 10.0642 34.8881 10.7886 33.96 11.6115C33.0319 12.4344 32.1383 13.3313 31.2694 14.2922C30.4006 15.2531 29.5712 16.2682 28.7813 17.3326C27.9914 18.397 27.2558 19.4861 26.5746 20.6047C27.1028 19.0426 27.6508 17.5445 28.2185 16.1105C28.7862 14.6766 29.3194 13.3855 29.8131 12.2324C30.3068 11.0842 30.7363 10.1184 31.1016 9.34964C31.4669 8.57598 31.7187 8.07828 31.852 7.85653C31.9359 7.66927 31.9408 7.41303 31.8668 7.09765C31.7927 6.78227 31.6545 6.46689 31.457 6.15644C31.2596 5.84599 31.0127 5.5799 30.7066 5.35815C30.4006 5.1364 30.0698 5.02306 29.7144 5.02306C29.5761 5.02306 29.428 5.03784 29.27 5.06248C29.1071 5.08712 28.9492 5.15118 28.7961 5.25466C26.6536 6.62951 24.7529 8.21625 23.0991 10.0198C21.4403 11.8234 19.9889 13.7009 18.7399 15.6473C17.4909 17.5987 16.4295 19.5304 15.5508 21.4572C14.677 23.379 13.9562 25.1481 13.3934 26.7644C13.7686 24.4976 14.2376 22.3343 14.7955 20.2745C15.3533 18.2147 15.9457 16.2978 16.5678 14.5287C17.1898 12.7597 17.802 11.1532 18.4042 9.7143C19.0065 8.27046 19.5397 7.04344 19.9988 6.03325C20.3394 5.25959 20.6208 4.60912 20.843 4.07692C21.0652 3.54473 21.2182 3.11601 21.3021 2.79078C21.3515 2.54932 21.2873 2.2635 21.1096 1.92842C20.9319 1.59333 20.6751 1.28288 20.3444 0.987211C20.0136 0.691545 19.6236 0.455012 19.1694 0.267757C18.7153 0.0706458 18.2315 -0.0131264 17.723 0.00165694C17.486 0.021368 17.0713 0.124851 16.4888 0.321962C15.9013 0.519073 15.2003 0.809812 14.3857 1.19911C13.5712 1.58347 12.6776 2.07132 11.71 2.6528C10.7424 3.23428 9.75997 3.91924 8.76275 4.70275C7.77046 5.48627 6.78804 6.37327 5.83031 7.36868C4.86764 8.36409 3.9889 9.46298 3.18915 10.6654C2.38939 11.8677 1.70812 13.1834 1.15026 14.6174C0.587474 16.0563 0.202407 17.5987 0 19.2446C0.0493676 20.309 0.251775 21.2009 0.597348 21.9253C0.947858 22.6448 1.32799 23.172 1.74268 23.4973C2.15736 23.8225 2.54243 23.9506 2.888 23.8816C3.23851 23.8127 3.42611 23.5219 3.46067 23.0045C3.57915 20.9447 3.95434 19.0475 4.58131 17.3129C5.20828 15.5783 5.97348 14.0064 6.87691 12.597C7.78033 11.1877 8.75287 9.94097 9.80934 8.84701C10.8609 7.75797 11.8778 6.82169 12.8553 6.03818C13.8328 5.25466 14.7115 4.61898 15.4965 4.13113C16.2765 3.64328 16.8541 3.29341 17.2293 3.08644C17.2787 3.05195 17.333 3.03716 17.3971 3.03716C17.4564 3.03716 17.4959 3.02731 17.5107 3.01253V3.11601C17.4416 3.23428 17.2392 3.56936 16.8985 4.10649C16.5579 4.64855 16.1481 5.37786 15.6594 6.29442C15.1756 7.21099 14.6375 8.2951 14.055 9.54182C13.4675 10.7886 12.8948 12.1782 12.332 13.7156C11.7692 15.2531 11.2459 16.9039 10.7523 18.673C10.2586 20.4421 9.86364 22.3048 9.56744 24.2611C9.27123 26.2174 9.09351 28.2526 9.04414 30.3666C8.99477 32.4806 9.12313 34.634 9.42921 36.8318L9.53288 37.7336C9.61681 38.2855 9.83402 38.7487 10.1845 39.1232C10.535 39.5027 10.9004 39.7885 11.2805 39.9856C11.6606 40.1827 12.0013 40.2911 12.3024 40.3059C12.5986 40.3207 12.7467 40.2369 12.7467 40.0497C12.7122 39.8427 12.6924 39.6308 12.6825 39.4189C12.6727 39.207 12.6628 38.9951 12.643 38.7882C13.0182 36.1961 13.5712 33.7125 14.3018 31.3423C15.0324 28.972 15.8667 26.7447 16.7998 24.6602C17.7328 22.5758 18.7251 20.6441 19.7717 18.875C20.8183 17.106 21.8353 15.534 22.8325 14.1591C23.8248 12.7843 24.7529 11.6213 25.6119 10.6703C26.4709 9.71922 27.1818 9.00962 27.7396 8.54641C26.9251 9.85227 26.155 11.3257 25.4342 12.9617C24.7134 14.6026 24.0618 16.2978 23.4842 18.0472C22.9066 19.7965 22.403 21.536 21.9785 23.2607C21.5539 24.9855 21.2182 26.587 20.9714 28.0653C20.7245 29.5437 20.5813 30.8347 20.5369 31.9435C20.4925 33.0522 20.5665 33.8456 20.7541 34.3236C20.9417 34.7868 21.1688 35.1219 21.4453 35.3289C21.7168 35.5358 21.9883 35.6393 22.2598 35.6393C22.482 35.6393 22.6893 35.59 22.8868 35.4865C23.0843 35.3831 23.2571 35.25 23.4101 35.0874C23.5632 34.9248 23.6866 34.7474 23.7804 34.5601C23.8742 34.3729 23.9186 34.2004 23.9186 34.0427C23.8989 33.8357 23.889 33.6288 23.8791 33.412C23.8692 33.1951 23.8742 32.9685 23.8939 32.727C24.1161 31.4408 24.5061 30.0857 25.0689 28.6714C25.6317 27.2572 26.2784 25.8528 27.0189 24.4582C27.7594 23.0686 28.5542 21.7282 29.4033 20.4371C30.2525 19.151 31.0818 17.9782 31.8915 16.9236C32.6962 15.8691 33.4465 14.9673 34.1328 14.2183C34.819 13.4693 35.3867 12.9518 35.831 12.6611C34.8091 14.3612 33.9649 16.1647 33.2935 18.0718C32.6221 19.9788 32.1186 21.9105 31.7779 23.8669C31.4373 25.8232 31.2398 27.7549 31.1904 29.6619C31.1411 31.569 31.2299 33.3528 31.4718 35.0184C31.6249 36.2701 31.8618 37.3295 32.1877 38.187C32.3901 38.6995 32.7208 39.1577 33.1701 39.552C33.6193 39.9462 34.0735 40.2616 34.5228 40.4932C34.972 40.7248 35.362 40.8627 35.6977 40.9071C36.0285 40.9514 36.1864 40.8775 36.1716 40.6903C35.9692 40.0349 35.7866 39.3598 35.6335 38.6551C35.4706 37.9603 35.3521 37.2753 35.2682 36.6051Z" fill="#FC4845"/>
</svg>
