<svg width="18" height="18" viewBox="0 0 18 18" fill="none" xmlns="http://www.w3.org/2000/svg">
<path d="M3.1679 1.52395L8.9999 7.35595L14.8079 1.54795C14.9097 1.43961 15.0323 1.35294 15.1684 1.29315C15.3045 1.23335 15.4513 1.20165 15.5999 1.19995C15.9182 1.19995 16.2234 1.32638 16.4484 1.55142C16.6735 1.77647 16.7999 2.08169 16.7999 2.39995C16.8027 2.54707 16.7754 2.69322 16.7197 2.82941C16.664 2.9656 16.581 3.08897 16.4759 3.19195L10.6079 8.99995L16.4759 14.868C16.6737 15.0614 16.7897 15.3235 16.7999 15.6C16.7999 15.9182 16.6735 16.2234 16.4484 16.4485C16.2234 16.6735 15.9182 16.8 15.5999 16.8C15.447 16.8063 15.2944 16.7808 15.1518 16.725C15.0093 16.6692 14.8799 16.5844 14.7719 16.476L8.9999 10.644L3.1799 16.464C3.07851 16.5687 2.95738 16.6523 2.8235 16.71C2.68963 16.7676 2.54566 16.7982 2.3999 16.8C2.08164 16.8 1.77642 16.6735 1.55137 16.4485C1.32633 16.2234 1.1999 15.9182 1.1999 15.6C1.1971 15.4528 1.2244 15.3067 1.28012 15.1705C1.33583 15.0343 1.41879 14.9109 1.5239 14.808L7.3919 8.99995L1.5239 3.13195C1.32612 2.93846 1.21015 2.67645 1.1999 2.39995C1.1999 2.08169 1.32633 1.77647 1.55137 1.55142C1.77642 1.32638 2.08164 1.19995 2.3999 1.19995C2.6879 1.20355 2.9639 1.31995 3.1679 1.52395Z" fill="black"/>
</svg>
