<svg width="27" height="19" viewBox="0 0 27 19" fill="none" xmlns="http://www.w3.org/2000/svg">
<path d="M26.4768 9.24109C26.4768 9.17797 26.4768 9.10625 26.4738 9.02305C26.4709 8.79066 26.465 8.52958 26.4592 8.25128C26.4357 7.45083 26.3947 6.65324 26.3302 5.90156C26.2423 4.86585 26.1133 4.00227 25.9375 3.35388C25.7519 2.67722 25.3882 2.06009 24.8826 1.56418C24.377 1.06826 23.7473 0.71093 23.0565 0.527898C22.227 0.309853 20.6033 0.17501 18.3173 0.0918083C17.2299 0.0516422 16.0664 0.0258209 14.9028 0.0114759C14.4954 0.00573785 14.1174 0.00286901 13.7774 0H12.9157C12.5757 0.00286901 12.1976 0.00573785 11.7903 0.0114759C10.6267 0.0258209 9.46315 0.0516422 8.37581 0.0918083C6.08974 0.177879 4.46312 0.312722 3.63662 0.527898C2.94552 0.710481 2.31559 1.06766 1.80994 1.56365C1.3043 2.05963 0.940699 2.677 0.755586 3.35388C0.576804 4.00227 0.450777 4.86585 0.362851 5.90156C0.298373 6.65324 0.257341 7.45083 0.233894 8.25128C0.225101 8.52958 0.22217 8.79066 0.219239 9.02305C0.219239 9.10625 0.216309 9.17797 0.216309 9.24109V9.40176C0.216309 9.46488 0.216309 9.5366 0.219239 9.6198C0.22217 9.85219 0.228032 10.1133 0.233894 10.3916C0.257341 11.192 0.298373 11.9896 0.362851 12.7413C0.450777 13.777 0.579735 14.6406 0.755586 15.289C1.13074 16.6632 2.23274 17.7477 3.63662 18.115C4.46312 18.333 6.08974 18.4678 8.37581 18.551C9.46315 18.5912 10.6267 18.617 11.7903 18.6314C12.1976 18.6371 12.5757 18.64 12.9157 18.6429H13.7774C14.1174 18.64 14.4954 18.6371 14.9028 18.6314C16.0664 18.617 17.2299 18.5912 18.3173 18.551C20.6033 18.465 22.23 18.3301 23.0565 18.115C24.4603 17.7477 25.5623 16.6661 25.9375 15.289C26.1163 14.6406 26.2423 13.777 26.3302 12.7413C26.3947 11.9896 26.4357 11.192 26.4592 10.3916C26.468 10.1133 26.4709 9.85219 26.4738 9.6198C26.4738 9.5366 26.4768 9.46488 26.4768 9.40176V9.24109ZM24.3666 9.39028C24.3666 9.45053 24.3666 9.51652 24.3636 9.59398C24.3607 9.81776 24.3548 10.0645 24.349 10.3313C24.3285 11.0945 24.2874 11.8576 24.2259 12.5663C24.1467 13.4901 24.0354 14.2475 23.8976 14.7553C23.7159 15.4181 23.1825 15.9431 22.5084 16.1181C21.8929 16.2788 20.3425 16.4079 18.2352 16.4854C17.1684 16.5255 16.0195 16.5513 14.8735 16.5657C14.472 16.5714 14.0998 16.5743 13.7656 16.5743H12.9274L11.8196 16.5657C10.6736 16.5513 9.52763 16.5255 8.45787 16.4854C6.35059 16.405 4.79723 16.2788 4.18469 16.1181C3.51059 15.9402 2.97717 15.4181 2.79546 14.7553C2.65771 14.2475 2.54634 13.4901 2.46721 12.5663C2.40566 11.8576 2.36756 11.0945 2.34411 10.3313C2.33532 10.0645 2.33239 9.81489 2.32945 9.59398C2.32945 9.51652 2.32652 9.44766 2.32652 9.39028V9.25257C2.32652 9.19232 2.32652 9.12633 2.32945 9.04887C2.33239 8.82509 2.33825 8.57835 2.34411 8.31153C2.36463 7.54837 2.40566 6.78522 2.46721 6.07657C2.54634 5.15275 2.65771 4.39533 2.79546 3.88751C2.97717 3.22477 3.51059 2.69974 4.18469 2.52473C4.80017 2.36407 6.35059 2.23496 8.45787 2.1575C9.5247 2.11733 10.6736 2.09151 11.8196 2.07717C12.2211 2.07143 12.5933 2.06856 12.9274 2.06856H13.7656L14.8735 2.07717C16.0195 2.09151 17.1654 2.11733 18.2352 2.1575C20.3425 2.23783 21.8958 2.36407 22.5084 2.52473C23.1825 2.70261 23.7159 3.22477 23.8976 3.88751C24.0354 4.39533 24.1467 5.15275 24.2259 6.07657C24.2874 6.78522 24.3255 7.54837 24.349 8.31153C24.3578 8.57835 24.3607 8.82795 24.3636 9.04887C24.3636 9.12633 24.3666 9.19519 24.3666 9.25257V9.39028ZM10.7381 13.1659L17.5377 9.29273L10.7381 5.47695V13.1659Z" fill="black"/>
</svg>
