<svg width="27" height="19" viewBox="0 0 27 19" fill="none" xmlns="http://www.w3.org/2000/svg">
<path d="M26.1904 9.24109C26.1904 9.17797 26.1904 9.10625 26.1875 9.02305C26.1846 8.79066 26.1787 8.52958 26.1729 8.25128C26.1495 7.45083 26.1086 6.65324 26.0443 5.90156C25.9566 4.86585 25.828 4.00227 25.6526 3.35388C25.4675 2.67722 25.1047 2.06009 24.6005 1.56418C24.0963 1.06826 23.4683 0.71093 22.7792 0.527898C21.952 0.309853 20.3327 0.17501 18.0527 0.0918083C16.9682 0.0516422 15.8078 0.0258209 14.6473 0.0114759C14.241 0.00573785 13.864 0.00286901 13.5249 0H12.6655C12.3265 0.00286901 11.9494 0.00573785 11.5431 0.0114759C10.3826 0.0258209 9.22219 0.0516422 8.13774 0.0918083C5.85777 0.177879 4.23548 0.312722 3.41119 0.527898C2.72194 0.710481 2.09368 1.06766 1.58939 1.56365C1.08509 2.05963 0.722459 2.677 0.537839 3.35388C0.359534 4.00227 0.233843 4.86585 0.146152 5.90156C0.0818451 6.65324 0.0409225 7.45083 0.0175382 8.25128C0.00876907 8.52958 0.00584603 8.79066 0.00292299 9.02305C0.00292299 9.10625 0 9.17797 0 9.24109V9.40176C0 9.46488 -4.46456e-08 9.5366 0.00292299 9.6198C0.00584603 9.85219 0.0116921 10.1133 0.0175382 10.3916C0.0409225 11.192 0.0818451 11.9896 0.146152 12.7413C0.233843 13.777 0.362457 14.6406 0.537839 15.289C0.911988 16.6632 2.01105 17.7477 3.41119 18.115C4.23548 18.333 5.85777 18.4678 8.13774 18.551C9.22219 18.5912 10.3826 18.617 11.5431 18.6314C11.9494 18.6371 12.3265 18.64 12.6655 18.6429H13.5249C13.864 18.64 14.241 18.6371 14.6473 18.6314C15.8078 18.617 16.9682 18.5912 18.0527 18.551C20.3327 18.465 21.9549 18.3301 22.7792 18.115C24.1794 17.7477 25.2784 16.6661 25.6526 15.289C25.8309 14.6406 25.9566 13.777 26.0443 12.7413C26.1086 11.9896 26.1495 11.192 26.1729 10.3916C26.1817 10.1133 26.1846 9.85219 26.1875 9.6198C26.1875 9.5366 26.1904 9.46488 26.1904 9.40176V9.24109ZM24.0858 9.39028C24.0858 9.45053 24.0858 9.51652 24.0829 9.59398C24.08 9.81776 24.0742 10.0645 24.0683 10.3313C24.0478 11.0945 24.0069 11.8576 23.9455 12.5663C23.8666 13.4901 23.7555 14.2475 23.6182 14.7553C23.4369 15.4181 22.9049 15.9431 22.2326 16.1181C21.6188 16.2788 20.0725 16.4079 17.9708 16.4854C16.9069 16.5255 15.761 16.5513 14.6181 16.5657C14.2177 16.5714 13.8464 16.5743 13.5132 16.5743H12.6772L11.5723 16.5657C10.4294 16.5513 9.2865 16.5255 8.21959 16.4854C6.11792 16.405 4.56871 16.2788 3.95779 16.1181C3.2855 15.9402 2.7535 15.4181 2.57227 14.7553C2.43489 14.2475 2.32382 13.4901 2.24489 12.5663C2.18351 11.8576 2.14551 11.0945 2.12213 10.3313C2.11336 10.0645 2.11043 9.81489 2.10751 9.59398C2.10751 9.51652 2.10459 9.44766 2.10459 9.39028V9.25257C2.10459 9.19232 2.10459 9.12633 2.10751 9.04887C2.11043 8.82509 2.11628 8.57835 2.12213 8.31153C2.14259 7.54837 2.18351 6.78522 2.24489 6.07657C2.32382 5.15275 2.43489 4.39533 2.57227 3.88751C2.7535 3.22477 3.2855 2.69974 3.95779 2.52473C4.57163 2.36407 6.11792 2.23496 8.21959 2.1575C9.28357 2.11733 10.4294 2.09151 11.5723 2.07717C11.9728 2.07143 12.344 2.06856 12.6772 2.06856H13.5132L14.6181 2.07717C15.761 2.09151 16.9039 2.11733 17.9708 2.1575C20.0725 2.23783 21.6217 2.36407 22.2326 2.52473C22.9049 2.70261 23.4369 3.22477 23.6182 3.88751C23.7555 4.39533 23.8666 5.15275 23.9455 6.07657C24.0069 6.78522 24.0449 7.54837 24.0683 8.31153C24.0771 8.57835 24.08 8.82795 24.0829 9.04887C24.0829 9.12633 24.0858 9.19519 24.0858 9.25257V9.39028ZM10.4937 13.1659L17.2752 9.29273L10.4937 5.47695V13.1659Z" fill="white"/>
</svg>
